<svg xmlns="http://www.w3.org/2000/svg" width="1600" height="900" viewBox="0 0 1600 900">
<rect width="1600" height="900" fill="#1e2638"/>
<rect x="0" y="600" width="1600" height="300" fill="#171d2b"/>
<g opacity="0.9">
  <rect x="120" y="380" width="220" height="220" fill="#333c52"/>
  <rect x="150" y="410" width="60" height="60" fill="#FD6925"/>
  <rect x="230" y="410" width="60" height="60" fill="#f4f4f4" opacity="0.15"/>
  <rect x="150" y="490" width="60" height="60" fill="#f4f4f4" opacity="0.15"/>
  <rect x="230" y="490" width="60" height="60" fill="#FD6925"/>
</g>
<g opacity="0.9">
  <rect x="1250" y="330" width="180" height="270" fill="#333c52"/>
  <rect x="1275" y="360" width="50" height="50" fill="#FD6925"/>
  <rect x="1345" y="360" width="50" height="50" fill="#f4f4f4" opacity="0.15"/>
  <rect x="1275" y="430" width="50" height="50" fill="#f4f4f4" opacity="0.15"/>
  <rect x="1345" y="430" width="50" height="50" fill="#FD6925"/>
  <rect x="1275" y="500" width="120" height="50" fill="#f4f4f4" opacity="0.1"/>
</g>
<circle cx="800" cy="230" r="70" fill="#FD6925" opacity="0.9"/>
<rect x="770" y="300" width="60" height="45" fill="#333c52"/>
<circle cx="950" cy="500" r="45" fill="none" stroke="#FD6925" stroke-width="10" opacity="0.6"/>
<circle cx="650" cy="520" r="30" fill="none" stroke="#f4f4f4" stroke-width="7" opacity="0.25"/>
</svg>